<mxfile host="app.diagrams.net" modified="2023-10-03T11:25:22.391Z" agent="Mozilla/5.0 (Windows NT 10.0; Win64; x64) AppleWebKit/537.36 (KHTML, like Gecko) Chrome/117.0.0.0 Safari/537.36" etag="uu-T9sx5nmnu9GSPHrad" version="21.7.5" type="device">
  <diagram name="1 oldal" id="pL-K80xvJewHXVkx9QC4">
    <mxGraphModel dx="393" dy="650" grid="1" gridSize="10" guides="1" tooltips="1" connect="1" arrows="1" fold="1" page="1" pageScale="1" pageWidth="827" pageHeight="1169" math="0" shadow="0">
      <root>
        <mxCell id="0" />
        <mxCell id="1" parent="0" />
        <mxCell id="yJNSF1TXMx5fCKKHBXeA-9" style="edgeStyle=orthogonalEdgeStyle;rounded=0;orthogonalLoop=1;jettySize=auto;html=1;exitX=0.5;exitY=1;exitDx=0;exitDy=0;entryX=0.5;entryY=0;entryDx=0;entryDy=0;" edge="1" parent="1" source="x3SwiINWwGX-mMM16VKN-1" target="yJNSF1TXMx5fCKKHBXeA-3">
          <mxGeometry relative="1" as="geometry" />
        </mxCell>
        <mxCell id="x3SwiINWwGX-mMM16VKN-1" value="start" style="ellipse;whiteSpace=wrap;html=1;" parent="1" vertex="1">
          <mxGeometry x="294" width="120" height="80" as="geometry" />
        </mxCell>
        <mxCell id="yJNSF1TXMx5fCKKHBXeA-1" value="end" style="ellipse;whiteSpace=wrap;html=1;" vertex="1" parent="1">
          <mxGeometry x="294" y="500" width="120" height="80" as="geometry" />
        </mxCell>
        <mxCell id="yJNSF1TXMx5fCKKHBXeA-10" style="edgeStyle=orthogonalEdgeStyle;rounded=0;orthogonalLoop=1;jettySize=auto;html=1;exitX=0.5;exitY=1;exitDx=0;exitDy=0;" edge="1" parent="1" source="yJNSF1TXMx5fCKKHBXeA-3" target="yJNSF1TXMx5fCKKHBXeA-4">
          <mxGeometry relative="1" as="geometry" />
        </mxCell>
        <mxCell id="yJNSF1TXMx5fCKKHBXeA-3" value="be : lista[]&lt;br&gt;n (egesz szam)" style="shape=parallelogram;perimeter=parallelogramPerimeter;whiteSpace=wrap;html=1;fixedSize=1;" vertex="1" parent="1">
          <mxGeometry x="294" y="100" width="120" height="60" as="geometry" />
        </mxCell>
        <mxCell id="yJNSF1TXMx5fCKKHBXeA-11" style="edgeStyle=orthogonalEdgeStyle;rounded=0;orthogonalLoop=1;jettySize=auto;html=1;exitX=0.5;exitY=1;exitDx=0;exitDy=0;entryX=0.5;entryY=0;entryDx=0;entryDy=0;" edge="1" parent="1" source="yJNSF1TXMx5fCKKHBXeA-4" target="yJNSF1TXMx5fCKKHBXeA-5">
          <mxGeometry relative="1" as="geometry" />
        </mxCell>
        <mxCell id="yJNSF1TXMx5fCKKHBXeA-4" value="osszeg = 0&lt;br&gt;i = 0" style="rounded=0;whiteSpace=wrap;html=1;" vertex="1" parent="1">
          <mxGeometry x="294" y="180" width="120" height="60" as="geometry" />
        </mxCell>
        <mxCell id="yJNSF1TXMx5fCKKHBXeA-12" style="edgeStyle=orthogonalEdgeStyle;rounded=0;orthogonalLoop=1;jettySize=auto;html=1;exitX=0;exitY=0.5;exitDx=0;exitDy=0;entryX=1;entryY=0.25;entryDx=0;entryDy=0;" edge="1" parent="1" source="yJNSF1TXMx5fCKKHBXeA-5" target="yJNSF1TXMx5fCKKHBXeA-8">
          <mxGeometry relative="1" as="geometry" />
        </mxCell>
        <mxCell id="yJNSF1TXMx5fCKKHBXeA-18" style="edgeStyle=orthogonalEdgeStyle;rounded=0;orthogonalLoop=1;jettySize=auto;html=1;exitX=0.5;exitY=1;exitDx=0;exitDy=0;entryX=0.5;entryY=0;entryDx=0;entryDy=0;" edge="1" parent="1" source="yJNSF1TXMx5fCKKHBXeA-5" target="yJNSF1TXMx5fCKKHBXeA-16">
          <mxGeometry relative="1" as="geometry" />
        </mxCell>
        <mxCell id="yJNSF1TXMx5fCKKHBXeA-5" value="i &amp;lt; n-1" style="rhombus;whiteSpace=wrap;html=1;" vertex="1" parent="1">
          <mxGeometry x="314" y="290" width="80" height="80" as="geometry" />
        </mxCell>
        <mxCell id="yJNSF1TXMx5fCKKHBXeA-6" value="i" style="text;html=1;strokeColor=none;fillColor=none;align=center;verticalAlign=middle;whiteSpace=wrap;rounded=0;" vertex="1" parent="1">
          <mxGeometry x="280" y="300" width="60" height="30" as="geometry" />
        </mxCell>
        <mxCell id="yJNSF1TXMx5fCKKHBXeA-13" style="edgeStyle=orthogonalEdgeStyle;rounded=0;orthogonalLoop=1;jettySize=auto;html=1;exitX=0;exitY=0.5;exitDx=0;exitDy=0;" edge="1" parent="1" source="yJNSF1TXMx5fCKKHBXeA-8">
          <mxGeometry relative="1" as="geometry">
            <mxPoint x="354" y="275" as="targetPoint" />
            <Array as="points">
              <mxPoint x="160" y="340" />
              <mxPoint x="160" y="286" />
              <mxPoint x="181" y="286" />
            </Array>
          </mxGeometry>
        </mxCell>
        <mxCell id="yJNSF1TXMx5fCKKHBXeA-8" value="osszeg +=&amp;nbsp; lista[i]" style="rounded=0;whiteSpace=wrap;html=1;" vertex="1" parent="1">
          <mxGeometry x="180" y="320" width="76" height="40" as="geometry" />
        </mxCell>
        <mxCell id="yJNSF1TXMx5fCKKHBXeA-15" value="h" style="text;html=1;strokeColor=none;fillColor=none;align=center;verticalAlign=middle;whiteSpace=wrap;rounded=0;" vertex="1" parent="1">
          <mxGeometry x="340" y="350" width="60" height="30" as="geometry" />
        </mxCell>
        <mxCell id="yJNSF1TXMx5fCKKHBXeA-19" style="edgeStyle=orthogonalEdgeStyle;rounded=0;orthogonalLoop=1;jettySize=auto;html=1;exitX=0.5;exitY=1;exitDx=0;exitDy=0;entryX=0.5;entryY=0;entryDx=0;entryDy=0;" edge="1" parent="1" source="yJNSF1TXMx5fCKKHBXeA-16" target="yJNSF1TXMx5fCKKHBXeA-1">
          <mxGeometry relative="1" as="geometry" />
        </mxCell>
        <mxCell id="yJNSF1TXMx5fCKKHBXeA-16" value="ki : osszeg" style="rounded=0;whiteSpace=wrap;html=1;" vertex="1" parent="1">
          <mxGeometry x="319" y="420" width="70" height="30" as="geometry" />
        </mxCell>
        <mxCell id="yJNSF1TXMx5fCKKHBXeA-17" value="i += 1" style="rounded=0;whiteSpace=wrap;html=1;" vertex="1" parent="1">
          <mxGeometry x="110" y="300" width="60" height="30" as="geometry" />
        </mxCell>
      </root>
    </mxGraphModel>
  </diagram>
</mxfile>
